<svg width="60" height="60" viewBox="0 0 60 60" fill="none" xmlns="http://www.w3.org/2000/svg">
<g clip-path="url(#clip0_16_206)">
<rect width="60" height="60" fill="#E95420"/>
<path d="M39.8746 -5.75391H20.1254V28.1417H39.8746V-5.75391Z" fill="white"/>
<path d="M16.892 41.132C16.444 41.132 16.044 41.068 15.692 40.94C15.34 40.812 15.064 40.604 14.864 40.316C14.664 40.028 14.564 39.648 14.564 39.176C14.564 38.72 14.676 38.352 14.9 38.072C15.124 37.784 15.432 37.576 15.824 37.448C16.224 37.32 16.672 37.256 17.168 37.256C17.392 37.256 17.628 37.276 17.876 37.316C18.124 37.356 18.28 37.392 18.344 37.424V37.064C18.344 36.792 18.308 36.532 18.236 36.284C18.172 36.028 18.036 35.82 17.828 35.66C17.62 35.5 17.304 35.42 16.88 35.42C16.44 35.42 16.104 35.452 15.872 35.516C15.64 35.58 15.468 35.632 15.356 35.672L15.236 34.904C15.38 34.84 15.6 34.78 15.896 34.724C16.192 34.668 16.54 34.64 16.94 34.64C17.508 34.64 17.956 34.74 18.284 34.94C18.62 35.14 18.86 35.416 19.004 35.768C19.156 36.112 19.232 36.508 19.232 36.956V40.856C19.064 40.896 18.764 40.952 18.332 41.024C17.9 41.096 17.42 41.132 16.892 41.132ZM17.024 40.364C17.304 40.364 17.556 40.356 17.78 40.34C18.004 40.316 18.192 40.288 18.344 40.256V38.168C18.264 38.128 18.128 38.088 17.936 38.048C17.744 38.008 17.496 37.988 17.192 37.988C16.936 37.988 16.676 38.016 16.412 38.072C16.148 38.128 15.924 38.24 15.74 38.408C15.564 38.576 15.476 38.828 15.476 39.164C15.476 39.612 15.616 39.924 15.896 40.1C16.176 40.276 16.552 40.364 17.024 40.364ZM23.5961 41.12C22.9721 41.12 22.4761 41.004 22.1081 40.772C21.7481 40.532 21.4881 40.196 21.3281 39.764C21.1761 39.332 21.1001 38.832 21.1001 38.264V34.784H22.0001V38.024C22.0001 38.584 22.0561 39.032 22.1681 39.368C22.2801 39.704 22.4601 39.948 22.7081 40.1C22.9641 40.244 23.3001 40.316 23.7161 40.316C24.0521 40.316 24.3481 40.3 24.6041 40.268C24.8681 40.228 25.0401 40.196 25.1201 40.172V34.784H26.0081V40.784C25.7681 40.848 25.4441 40.92 25.0361 41C24.6361 41.08 24.1561 41.12 23.5961 41.12ZM30.0555 41.132C29.5275 41.132 29.1115 41.04 28.8075 40.856C28.5035 40.672 28.2875 40.396 28.1595 40.028C28.0395 39.66 27.9795 39.2 27.9795 38.648V32.984L28.8795 32.828V34.784H31.3155V35.54H28.8795V38.72C28.8795 39.16 28.9275 39.496 29.0235 39.728C29.1275 39.96 29.2715 40.12 29.4555 40.208C29.6475 40.288 29.8715 40.328 30.1275 40.328C30.4315 40.328 30.6835 40.292 30.8835 40.22C31.0915 40.148 31.2555 40.084 31.3755 40.028L31.5675 40.76C31.4475 40.832 31.2475 40.912 30.9675 41C30.6955 41.088 30.3915 41.132 30.0555 41.132ZM32.7385 41V31.844L33.6385 31.688V34.94C33.8705 34.852 34.1145 34.784 34.3705 34.736C34.6345 34.688 34.8905 34.664 35.1385 34.664C35.7945 34.664 36.3025 34.784 36.6625 35.024C37.0225 35.264 37.2745 35.6 37.4185 36.032C37.5705 36.456 37.6465 36.952 37.6465 37.52V41H36.7465V37.772C36.7465 37.204 36.6945 36.752 36.5905 36.416C36.4865 36.08 36.3105 35.836 36.0625 35.684C35.8145 35.532 35.4665 35.456 35.0185 35.456C34.8505 35.456 34.6665 35.476 34.4665 35.516C34.2745 35.548 34.1025 35.584 33.9505 35.624C33.7985 35.664 33.6945 35.696 33.6385 35.72V41H32.7385ZM42.3059 41.144C41.6979 41.144 41.1619 41.016 40.6979 40.76C40.2339 40.496 39.8739 40.124 39.6179 39.644C39.3619 39.156 39.2339 38.576 39.2339 37.904C39.2339 37.264 39.3419 36.7 39.5579 36.212C39.7819 35.724 40.1019 35.344 40.5179 35.072C40.9419 34.792 41.4499 34.652 42.0419 34.652C42.4259 34.652 42.7619 34.708 43.0499 34.82C43.3459 34.924 43.5659 35.028 43.7099 35.132V31.844L44.5979 31.688V40.808C44.4459 40.856 44.2579 40.908 44.0339 40.964C43.8099 41.012 43.5539 41.052 43.2659 41.084C42.9859 41.124 42.6659 41.144 42.3059 41.144ZM42.3179 40.34C42.6699 40.34 42.9579 40.324 43.1819 40.292C43.4139 40.252 43.5899 40.216 43.7099 40.184V35.972C43.5739 35.86 43.3659 35.748 43.0859 35.636C42.8059 35.516 42.4899 35.456 42.1379 35.456C41.7779 35.456 41.4699 35.52 41.2139 35.648C40.9659 35.768 40.7619 35.94 40.6019 36.164C40.4499 36.388 40.3379 36.648 40.2659 36.944C40.2019 37.24 40.1699 37.556 40.1699 37.892C40.1699 38.412 40.2579 38.856 40.4339 39.224C40.6179 39.584 40.8699 39.86 41.1899 40.052C41.5179 40.244 41.8939 40.34 42.3179 40.34Z" fill="white"/>
<path d="M20.656 53.3626C19.952 53.3626 19.3 53.1986 18.7 52.8706C18.108 52.5426 17.632 52.0586 17.272 51.4186C16.912 50.7706 16.732 49.9706 16.732 49.0186C16.732 48.3066 16.836 47.6826 17.044 47.1466C17.252 46.6026 17.536 46.1506 17.896 45.7906C18.264 45.4226 18.684 45.1466 19.156 44.9626C19.628 44.7786 20.128 44.6866 20.656 44.6866C21.368 44.6866 22.02 44.8506 22.612 45.1786C23.204 45.4986 23.68 45.9826 24.04 46.6306C24.4 47.2706 24.58 48.0666 24.58 49.0186C24.58 49.9706 24.4 50.7706 24.04 51.4186C23.68 52.0586 23.204 52.5426 22.612 52.8706C22.02 53.1986 21.368 53.3626 20.656 53.3626ZM20.656 52.5226C21.256 52.5226 21.776 52.3826 22.216 52.1026C22.656 51.8146 22.996 51.4106 23.236 50.8906C23.476 50.3626 23.596 49.7386 23.596 49.0186C23.596 48.2986 23.476 47.6786 23.236 47.1586C22.996 46.6306 22.656 46.2266 22.216 45.9466C21.776 45.6666 21.256 45.5266 20.656 45.5266C20.056 45.5266 19.536 45.6666 19.096 45.9466C18.656 46.2266 18.316 46.6306 18.076 47.1586C17.836 47.6786 17.716 48.2986 17.716 49.0186C17.716 49.7386 17.836 50.3626 18.076 50.8906C18.316 51.4106 18.656 51.8146 19.096 52.1026C19.536 52.3826 20.056 52.5226 20.656 52.5226ZM26.3844 53.1826V44.8666H27.3204V53.1826H26.3844ZM31.5307 53.2546C31.1947 53.2546 30.8387 53.2386 30.4627 53.2066C30.0867 53.1746 29.7507 53.1186 29.4547 53.0386V45.0226C29.7507 44.9426 30.0867 44.8866 30.4627 44.8546C30.8467 44.8146 31.2067 44.7946 31.5427 44.7946C32.4467 44.7946 33.2427 44.9506 33.9307 45.2626C34.6187 45.5666 35.1547 46.0306 35.5387 46.6546C35.9307 47.2786 36.1267 48.0666 36.1267 49.0186C36.1267 49.9626 35.9307 50.7506 35.5387 51.3826C35.1547 52.0066 34.6187 52.4746 33.9307 52.7866C33.2427 53.0986 32.4427 53.2546 31.5307 53.2546ZM31.6267 52.4506C32.7947 52.4506 33.6707 52.1466 34.2547 51.5386C34.8467 50.9226 35.1427 50.0826 35.1427 49.0186C35.1427 47.9546 34.8507 47.1186 34.2667 46.5106C33.6827 45.9026 32.8067 45.5986 31.6387 45.5986C31.2467 45.5986 30.9547 45.6106 30.7627 45.6346C30.5707 45.6586 30.4467 45.6746 30.3907 45.6826V52.3666C30.4467 52.3746 30.5667 52.3906 30.7507 52.4146C30.9347 52.4386 31.2267 52.4506 31.6267 52.4506ZM41.4194 53.3626C40.6914 53.3626 40.0354 53.1946 39.4514 52.8586C38.8754 52.5226 38.4194 52.0346 38.0834 51.3946C37.7554 50.7466 37.5914 49.9546 37.5914 49.0186C37.5914 48.3226 37.6954 47.7066 37.9034 47.1706C38.1114 46.6266 38.3954 46.1706 38.7554 45.8026C39.1234 45.4346 39.5394 45.1586 40.0034 44.9746C40.4754 44.7826 40.9674 44.6866 41.4794 44.6866C41.9034 44.6866 42.2714 44.7226 42.5834 44.7946C42.9034 44.8586 43.1674 44.9346 43.3754 45.0226C43.5834 45.1106 43.7354 45.1866 43.8314 45.2506L43.5314 46.0426C43.3314 45.9226 43.0714 45.8066 42.7514 45.6946C42.4394 45.5826 42.0594 45.5266 41.6114 45.5266C40.9554 45.5266 40.3994 45.6746 39.9434 45.9706C39.4954 46.2586 39.1554 46.6666 38.9234 47.1946C38.6914 47.7146 38.5754 48.3266 38.5754 49.0306C38.5754 49.7346 38.6874 50.3506 38.9114 50.8786C39.1354 51.3986 39.4634 51.8026 39.8954 52.0906C40.3354 52.3786 40.8714 52.5226 41.5034 52.5226C42.0314 52.5226 42.4714 52.4746 42.8234 52.3786C43.1754 52.2746 43.4474 52.1706 43.6394 52.0666L43.8914 52.8586C43.7634 52.9386 43.4834 53.0426 43.0514 53.1706C42.6274 53.2986 42.0834 53.3626 41.4194 53.3626Z" fill="white"/>
<path d="M24.851 19.4031C25.9797 19.4031 26.8947 18.49 26.8947 17.3637C26.8947 16.2373 25.9797 15.3242 24.851 15.3242C23.7223 15.3242 22.8074 16.2373 22.8074 17.3637C22.8074 18.49 23.7223 19.4031 24.851 19.4031Z" fill="#E95420"/>
<path d="M33.3637 14.9295C34.4924 14.9295 35.4074 14.0164 35.4074 12.89C35.4074 11.7637 34.4924 10.8506 33.3637 10.8506C32.235 10.8506 31.3201 11.7637 31.3201 12.89C31.3201 14.0164 32.235 14.9295 33.3637 14.9295Z" fill="#E95420"/>
<path d="M29.4595 22.6125C27.9876 22.2974 26.7569 21.359 26.065 20.0293C25.5204 20.2766 24.9072 20.352 24.3169 20.2436C25.1537 22.294 26.9289 23.7847 29.1081 24.2505C29.5866 24.353 30.0736 24.4021 30.5597 24.3995C30.1845 23.9075 29.9753 23.3138 29.9609 22.6946C29.7924 22.676 29.6247 22.6489 29.4595 22.6133V22.6125Z" fill="#E95420"/>
<path d="M32.9023 24.6629C34.031 24.6629 34.946 23.7498 34.946 22.6234C34.946 21.4971 34.031 20.584 32.9023 20.584C31.7736 20.584 30.8586 21.4971 30.8586 22.6234C30.8586 23.7498 31.7736 24.6629 32.9023 24.6629Z" fill="#E95420"/>
<path d="M35.7463 21.8741C36.3823 21.0746 36.8295 20.1294 37.0455 19.1249C37.4215 17.3734 37.0701 15.5355 36.0817 14.0449C35.8462 14.598 35.4465 15.0663 34.9324 15.3882C35.4837 16.4257 35.6514 17.6233 35.4041 18.7743C35.283 19.3375 35.0696 19.8694 34.7681 20.3547C35.2491 20.7485 35.5887 21.2779 35.7463 21.8741Z" fill="#E95420"/>
<path d="M24.6924 14.437C24.744 14.4344 24.7965 14.4327 24.8482 14.4327C25.0549 14.4327 25.2607 14.4547 25.4648 14.4979C25.7976 14.5691 26.111 14.6953 26.3981 14.8731C27.3188 13.5527 28.8035 12.76 30.4127 12.7312C30.4211 12.5771 30.4414 12.4229 30.4745 12.2722C30.5685 11.8351 30.7599 11.4269 31.0326 11.0771C28.4621 10.8739 25.9645 12.1976 24.6924 14.437Z" fill="#E95420"/>
</g>
<defs>
<clipPath id="clip0_16_206">
<rect width="60" height="60" fill="white"/>
</clipPath>
</defs>
</svg>
