<svg width="60" height="60" viewBox="0 0 60 60" fill="none" xmlns="http://www.w3.org/2000/svg">
<rect width="60" height="60" fill="#E95420"/>
<path d="M39.8748 0H20.1255V28.1417H39.8748V0Z" fill="white"/>
<path d="M24.8511 19.4031C25.9798 19.4031 26.8947 18.49 26.8947 17.3637C26.8947 16.2373 25.9798 15.3242 24.8511 15.3242C23.7224 15.3242 22.8074 16.2373 22.8074 17.3637C22.8074 18.49 23.7224 19.4031 24.8511 19.4031Z" fill="#E95420"/>
<path d="M33.3638 14.9295C34.4924 14.9295 35.4074 14.0164 35.4074 12.89C35.4074 11.7637 34.4924 10.8506 33.3638 10.8506C32.2351 10.8506 31.3201 11.7637 31.3201 12.89C31.3201 14.0164 32.2351 14.9295 33.3638 14.9295Z" fill="#E95420"/>
<path d="M29.4596 22.6125C27.9876 22.2974 26.757 21.359 26.065 20.0293C25.5204 20.2766 24.9072 20.352 24.3169 20.2436C25.1537 22.294 26.9289 23.7847 29.1081 24.2505C29.5866 24.353 30.0736 24.4021 30.5597 24.3995C30.1845 23.9075 29.9754 23.3138 29.961 22.6946C29.7924 22.676 29.6247 22.6489 29.4596 22.6133V22.6125Z" fill="#E95420"/>
<path d="M32.9023 24.6629C34.031 24.6629 34.946 23.7498 34.946 22.6234C34.946 21.4971 34.031 20.584 32.9023 20.584C31.7736 20.584 30.8586 21.4971 30.8586 22.6234C30.8586 23.7498 31.7736 24.6629 32.9023 24.6629Z" fill="#E95420"/>
<path d="M35.7463 21.8741C36.3823 21.0746 36.8295 20.1294 37.0455 19.1249C37.4216 17.3734 37.0701 15.5355 36.0817 14.0449C35.8462 14.598 35.4465 15.0663 34.9324 15.3882C35.4837 16.4257 35.6514 17.6233 35.4041 18.7743C35.283 19.3375 35.0696 19.8694 34.7681 20.3547C35.2491 20.7485 35.5888 21.2779 35.7463 21.8741Z" fill="#E95420"/>
<path d="M24.6924 14.437C24.744 14.4344 24.7966 14.4327 24.8482 14.4327C25.0549 14.4327 25.2607 14.4547 25.4648 14.4979C25.7976 14.5691 26.111 14.6953 26.3981 14.8731C27.3188 13.5527 28.8035 12.76 30.4127 12.7312C30.4211 12.5771 30.4415 12.4229 30.4745 12.2722C30.5685 11.8351 30.7599 11.4269 31.0326 11.0771C28.4621 10.8739 25.9645 12.1976 24.6924 14.437Z" fill="#E95420"/>
<path d="M16.392 41.132C15.944 41.132 15.544 41.068 15.192 40.94C14.84 40.812 14.564 40.604 14.364 40.316C14.164 40.028 14.064 39.648 14.064 39.176C14.064 38.72 14.176 38.352 14.4 38.072C14.624 37.784 14.932 37.576 15.324 37.448C15.724 37.32 16.172 37.256 16.668 37.256C16.892 37.256 17.128 37.276 17.376 37.316C17.624 37.356 17.78 37.392 17.844 37.424V37.064C17.844 36.792 17.808 36.532 17.736 36.284C17.672 36.028 17.536 35.82 17.328 35.66C17.12 35.5 16.804 35.42 16.38 35.42C15.94 35.42 15.604 35.452 15.372 35.516C15.14 35.58 14.968 35.632 14.856 35.672L14.736 34.904C14.88 34.84 15.1 34.78 15.396 34.724C15.692 34.668 16.04 34.64 16.44 34.64C17.008 34.64 17.456 34.74 17.784 34.94C18.12 35.14 18.36 35.416 18.504 35.768C18.656 36.112 18.732 36.508 18.732 36.956V40.856C18.564 40.896 18.264 40.952 17.832 41.024C17.4 41.096 16.92 41.132 16.392 41.132ZM16.524 40.364C16.804 40.364 17.056 40.356 17.28 40.34C17.504 40.316 17.692 40.288 17.844 40.256V38.168C17.764 38.128 17.628 38.088 17.436 38.048C17.244 38.008 16.996 37.988 16.692 37.988C16.436 37.988 16.176 38.016 15.912 38.072C15.648 38.128 15.424 38.24 15.24 38.408C15.064 38.576 14.976 38.828 14.976 39.164C14.976 39.612 15.116 39.924 15.396 40.1C15.676 40.276 16.052 40.364 16.524 40.364ZM23.0961 41.12C22.4721 41.12 21.9761 41.004 21.6081 40.772C21.2481 40.532 20.9881 40.196 20.8281 39.764C20.6761 39.332 20.6001 38.832 20.6001 38.264V34.784H21.5001V38.024C21.5001 38.584 21.5561 39.032 21.6681 39.368C21.7801 39.704 21.9601 39.948 22.2081 40.1C22.4641 40.244 22.8001 40.316 23.2161 40.316C23.5521 40.316 23.8481 40.3 24.1041 40.268C24.3681 40.228 24.5401 40.196 24.6201 40.172V34.784H25.5081V40.784C25.2681 40.848 24.9441 40.92 24.5361 41C24.1361 41.08 23.6561 41.12 23.0961 41.12ZM29.5555 41.132C29.0275 41.132 28.6115 41.04 28.3075 40.856C28.0035 40.672 27.7875 40.396 27.6595 40.028C27.5395 39.66 27.4795 39.2 27.4795 38.648V32.984L28.3795 32.828V34.784H30.8155V35.54H28.3795V38.72C28.3795 39.16 28.4275 39.496 28.5235 39.728C28.6275 39.96 28.7715 40.12 28.9555 40.208C29.1475 40.288 29.3715 40.328 29.6275 40.328C29.9315 40.328 30.1835 40.292 30.3835 40.22C30.5915 40.148 30.7555 40.084 30.8755 40.028L31.0675 40.76C30.9475 40.832 30.7475 40.912 30.4675 41C30.1955 41.088 29.8915 41.132 29.5555 41.132ZM32.2385 41V31.844L33.1385 31.688V34.94C33.3705 34.852 33.6145 34.784 33.8705 34.736C34.1345 34.688 34.3905 34.664 34.6385 34.664C35.2945 34.664 35.8025 34.784 36.1625 35.024C36.5225 35.264 36.7745 35.6 36.9185 36.032C37.0705 36.456 37.1465 36.952 37.1465 37.52V41H36.2465V37.772C36.2465 37.204 36.1945 36.752 36.0905 36.416C35.9865 36.08 35.8105 35.836 35.5625 35.684C35.3145 35.532 34.9665 35.456 34.5185 35.456C34.3505 35.456 34.1665 35.476 33.9665 35.516C33.7745 35.548 33.6025 35.584 33.4505 35.624C33.2985 35.664 33.1945 35.696 33.1385 35.72V41H32.2385ZM41.8059 41.144C41.1979 41.144 40.6619 41.016 40.1979 40.76C39.7339 40.496 39.3739 40.124 39.1179 39.644C38.8619 39.156 38.7339 38.576 38.7339 37.904C38.7339 37.264 38.8419 36.7 39.0579 36.212C39.2819 35.724 39.6019 35.344 40.0179 35.072C40.4419 34.792 40.9499 34.652 41.5419 34.652C41.9259 34.652 42.2619 34.708 42.5499 34.82C42.8459 34.924 43.0659 35.028 43.2099 35.132V31.844L44.0979 31.688V40.808C43.9459 40.856 43.7579 40.908 43.5339 40.964C43.3099 41.012 43.0539 41.052 42.7659 41.084C42.4859 41.124 42.1659 41.144 41.8059 41.144ZM41.8179 40.34C42.1699 40.34 42.4579 40.324 42.6819 40.292C42.9139 40.252 43.0899 40.216 43.2099 40.184V35.972C43.0739 35.86 42.8659 35.748 42.5859 35.636C42.3059 35.516 41.9899 35.456 41.6379 35.456C41.2779 35.456 40.9699 35.52 40.7139 35.648C40.4659 35.768 40.2619 35.94 40.1019 36.164C39.9499 36.388 39.8379 36.648 39.7659 36.944C39.7019 37.24 39.6699 37.556 39.6699 37.892C39.6699 38.412 39.7579 38.856 39.9339 39.224C40.1179 39.584 40.3699 39.86 40.6899 40.052C41.0179 40.244 41.3939 40.34 41.8179 40.34Z" fill="white"/>
<path d="M7.96356 53.3226C7.35023 53.3226 6.80023 53.1826 6.31356 52.9026C5.83356 52.6226 5.45356 52.216 5.17356 51.6826C4.90023 51.1426 4.76356 50.486 4.76356 49.7126C4.76356 48.9393 4.91023 48.286 5.20356 47.7526C5.50356 47.2126 5.90023 46.8026 6.39356 46.5226C6.89356 46.2426 7.44356 46.1026 8.04356 46.1026C8.3969 46.1026 8.7069 46.1293 8.97356 46.1826C9.24023 46.236 9.4669 46.2993 9.65356 46.3726C9.84023 46.446 9.98023 46.516 10.0736 46.5826L9.82356 47.2426C9.6369 47.1093 9.38356 47.0026 9.06356 46.9226C8.75023 46.8359 8.41023 46.7926 8.04356 46.7926C7.5769 46.7926 7.1569 46.9026 6.78356 47.1226C6.4169 47.3426 6.12356 47.6693 5.90356 48.1026C5.69023 48.536 5.58356 49.0726 5.58356 49.7126C5.58356 50.306 5.6769 50.8226 5.86356 51.2626C6.05023 51.7026 6.3269 52.0426 6.69356 52.2826C7.0669 52.5226 7.5269 52.6426 8.07356 52.6426C8.39356 52.6426 8.66023 52.626 8.87356 52.5926C9.09356 52.5526 9.24356 52.5193 9.32356 52.4926V49.8626H10.1036V52.9926C9.9769 53.046 9.72356 53.1126 9.34356 53.1926C8.97023 53.2793 8.51023 53.3226 7.96356 53.3226ZM13.7044 53.3026C13.2444 53.3026 12.8344 53.1926 12.4744 52.9726C12.1144 52.746 11.8311 52.4293 11.6244 52.0226C11.4244 51.616 11.3244 51.1393 11.3244 50.5926C11.3244 50.046 11.4244 49.5726 11.6244 49.1726C11.8311 48.766 12.1144 48.4493 12.4744 48.2226C12.8344 47.996 13.2444 47.8826 13.7044 47.8826C14.1711 47.8826 14.5844 47.996 14.9444 48.2226C15.3044 48.4493 15.5844 48.766 15.7844 49.1726C15.9911 49.5726 16.0944 50.046 16.0944 50.5926C16.0944 51.1393 15.9911 51.616 15.7844 52.0226C15.5844 52.4293 15.3044 52.746 14.9444 52.9726C14.5911 53.1926 14.1778 53.3026 13.7044 53.3026ZM13.7044 52.6326C14.0378 52.6326 14.3244 52.5493 14.5644 52.3826C14.8044 52.216 14.9878 51.9793 15.1144 51.6726C15.2478 51.366 15.3144 51.006 15.3144 50.5926C15.3144 50.1793 15.2478 49.8193 15.1144 49.5126C14.9878 49.206 14.8044 48.9693 14.5644 48.8026C14.3244 48.636 14.0378 48.5526 13.7044 48.5526C13.3778 48.5526 13.0944 48.636 12.8544 48.8026C12.6144 48.9693 12.4278 49.206 12.2944 49.5126C12.1678 49.8193 12.1044 50.1793 12.1044 50.5926C12.1044 51.006 12.1678 51.366 12.2944 51.6726C12.4278 51.9793 12.6144 52.216 12.8544 52.3826C13.0944 52.5493 13.3778 52.6326 13.7044 52.6326ZM19.554 53.3026C19.094 53.3026 18.684 53.1926 18.324 52.9726C17.964 52.746 17.6807 52.4293 17.474 52.0226C17.274 51.616 17.174 51.1393 17.174 50.5926C17.174 50.046 17.274 49.5726 17.474 49.1726C17.6807 48.766 17.964 48.4493 18.324 48.2226C18.684 47.996 19.094 47.8826 19.554 47.8826C20.0207 47.8826 20.434 47.996 20.794 48.2226C21.154 48.4493 21.434 48.766 21.634 49.1726C21.8407 49.5726 21.944 50.046 21.944 50.5926C21.944 51.1393 21.8407 51.616 21.634 52.0226C21.434 52.4293 21.154 52.746 20.794 52.9726C20.4407 53.1926 20.0274 53.3026 19.554 53.3026ZM19.554 52.6326C19.8874 52.6326 20.174 52.5493 20.414 52.3826C20.654 52.216 20.8374 51.9793 20.964 51.6726C21.0974 51.366 21.164 51.006 21.164 50.5926C21.164 50.1793 21.0974 49.8193 20.964 49.5126C20.8374 49.206 20.654 48.9693 20.414 48.8026C20.174 48.636 19.8874 48.5526 19.554 48.5526C19.2274 48.5526 18.944 48.636 18.704 48.8026C18.464 48.9693 18.2774 49.206 18.144 49.5126C18.0174 49.8193 17.954 50.1793 17.954 50.5926C17.954 51.006 18.0174 51.366 18.144 51.6726C18.2774 51.9793 18.464 52.216 18.704 52.3826C18.944 52.5493 19.2274 52.6326 19.554 52.6326ZM24.9536 55.0626C24.627 55.0626 24.3236 55.036 24.0436 54.9826C23.7636 54.9293 23.5236 54.8693 23.3236 54.8026L23.4736 54.1426C23.6403 54.2093 23.8603 54.2693 24.1336 54.3226C24.407 54.3826 24.687 54.4126 24.9736 54.4126C25.3736 54.4126 25.697 54.3626 25.9436 54.2626C26.1903 54.1626 26.3703 54.0026 26.4836 53.7826C26.6036 53.5626 26.6636 53.2726 26.6636 52.9126V52.5826C26.5703 52.6493 26.4103 52.7326 26.1836 52.8326C25.957 52.926 25.667 52.9726 25.3136 52.9726C24.907 52.9726 24.527 52.8893 24.1736 52.7226C23.827 52.5493 23.547 52.2793 23.3336 51.9126C23.127 51.546 23.0236 51.066 23.0236 50.4726C23.0236 49.9793 23.1203 49.5393 23.3136 49.1526C23.5136 48.766 23.797 48.4626 24.1636 48.2426C24.537 48.016 24.9803 47.9026 25.4936 47.9026C25.9603 47.9026 26.3436 47.936 26.6436 48.0026C26.9503 48.0626 27.2003 48.1226 27.3936 48.1826V52.8726C27.3936 53.6526 27.1903 54.2126 26.7836 54.5526C26.3836 54.8926 25.7736 55.0626 24.9536 55.0626ZM25.3436 52.3126C25.617 52.3126 25.8703 52.2726 26.1036 52.1926C26.3436 52.1126 26.527 52.0193 26.6536 51.9126V48.6926C26.547 48.6593 26.407 48.6293 26.2336 48.6026C26.0603 48.576 25.817 48.5626 25.5036 48.5626C25.1436 48.5626 24.837 48.6426 24.5836 48.8026C24.3303 48.9626 24.137 49.1893 24.0036 49.4826C23.8703 49.7693 23.8036 50.1026 23.8036 50.4826C23.8036 50.8093 23.847 51.0893 23.9336 51.3226C24.0203 51.556 24.137 51.746 24.2836 51.8926C24.4303 52.0393 24.5936 52.146 24.7736 52.2126C24.9603 52.2793 25.1503 52.3126 25.3436 52.3126ZM30.4756 53.2726C30.1556 53.2593 29.8889 53.206 29.6756 53.1126C29.4689 53.0193 29.3156 52.876 29.2156 52.6826C29.1156 52.4826 29.0656 52.216 29.0656 51.8826V45.5526L29.8156 45.4226V51.8326C29.8156 52.1526 29.8723 52.3593 29.9856 52.4526C30.1056 52.546 30.3056 52.6126 30.5856 52.6526L30.4756 53.2726ZM33.9628 53.2926C33.3561 53.2926 32.8628 53.176 32.4828 52.9426C32.1094 52.7093 31.8328 52.3893 31.6528 51.9826C31.4794 51.576 31.3928 51.1126 31.3928 50.5926C31.3928 49.986 31.5028 49.4826 31.7228 49.0826C31.9428 48.6826 32.2261 48.3826 32.5728 48.1826C32.9261 47.9826 33.2961 47.8826 33.6828 47.8826C34.1161 47.8826 34.4895 47.976 34.8028 48.1626C35.1228 48.3426 35.3695 48.6226 35.5428 49.0026C35.7161 49.376 35.8028 49.8526 35.8028 50.4326C35.8028 50.4793 35.7995 50.536 35.7928 50.6026C35.7928 50.6626 35.7895 50.7193 35.7828 50.7726H32.1728C32.1994 51.3593 32.3561 51.816 32.6428 52.1426C32.9361 52.4626 33.3894 52.6226 34.0028 52.6226C34.3428 52.6226 34.6195 52.5926 34.8328 52.5326C35.0528 52.466 35.2095 52.4093 35.3028 52.3626L35.4328 52.9926C35.3395 53.046 35.1561 53.1093 34.8828 53.1826C34.6161 53.256 34.3094 53.2926 33.9628 53.2926ZM32.1928 50.1626H35.0428C35.0361 49.8226 34.9794 49.5326 34.8728 49.2926C34.7661 49.046 34.6128 48.8593 34.4128 48.7326C34.2195 48.5993 33.9795 48.5326 33.6928 48.5326C33.3994 48.5326 33.1428 48.6093 32.9228 48.7626C32.7028 48.916 32.5294 49.116 32.4028 49.3626C32.2828 49.6093 32.2128 49.876 32.1928 50.1626ZM39.5455 53.1826V46.2526H40.3255V53.1826H39.5455ZM41.3141 53.1826C41.6741 52.216 42.0041 51.336 42.3041 50.5426C42.6041 49.7493 42.8974 49.006 43.1841 48.3126C43.4774 47.6126 43.7874 46.926 44.1141 46.2526H44.8141C45.0541 46.7593 45.2841 47.2726 45.5041 47.7926C45.7308 48.306 45.9541 48.8393 46.1741 49.3926C46.3941 49.946 46.6208 50.536 46.8541 51.1626C47.0941 51.7826 47.3474 52.456 47.6141 53.1826H46.7641C46.6441 52.8493 46.5274 52.5326 46.4141 52.2326C46.3008 51.926 46.1941 51.626 46.0941 51.3326H42.7941C42.6874 51.626 42.5774 51.926 42.4641 52.2326C42.3508 52.5326 42.2374 52.8493 42.1241 53.1826H41.3141ZM43.0241 50.6726H45.8641C45.7374 50.3393 45.6141 50.016 45.4941 49.7026C45.3741 49.3893 45.2541 49.086 45.1341 48.7926C45.0208 48.4993 44.9041 48.216 44.7841 47.9426C44.6708 47.6626 44.5541 47.3893 44.4341 47.1226C44.3208 47.3893 44.2041 47.6626 44.0841 47.9426C43.9708 48.216 43.8541 48.4993 43.7341 48.7926C43.6208 49.086 43.5041 49.3893 43.3841 49.7026C43.2641 50.016 43.1441 50.3393 43.0241 50.6726ZM48.438 53.1826C48.4647 52.5693 48.4947 51.9593 48.528 51.3526C48.5614 50.746 48.598 50.1526 48.638 49.5726C48.678 48.986 48.7214 48.416 48.768 47.8626C48.8147 47.3026 48.868 46.766 48.928 46.2526H49.628C49.8214 46.5726 50.0247 46.946 50.238 47.3726C50.458 47.7926 50.678 48.236 50.898 48.7026C51.118 49.1626 51.328 49.616 51.528 50.0626C51.7347 50.5093 51.918 50.9126 52.078 51.2726C52.238 50.9126 52.418 50.5093 52.618 50.0626C52.8247 49.616 53.038 49.1626 53.258 48.7026C53.478 48.236 53.698 47.7926 53.918 47.3726C54.138 46.946 54.3414 46.5726 54.528 46.2526H55.188C55.248 46.766 55.3014 47.3026 55.348 47.8626C55.4014 48.416 55.4447 48.986 55.478 49.5726C55.518 50.1526 55.5547 50.746 55.588 51.3526C55.628 51.9593 55.6614 52.5693 55.688 53.1826H54.908C54.8814 52.5026 54.8514 51.836 54.818 51.1826C54.7914 50.5226 54.758 49.886 54.718 49.2726C54.678 48.6593 54.6314 48.0793 54.578 47.5326C54.5114 47.6593 54.4047 47.8693 54.258 48.1626C54.118 48.4493 53.958 48.7826 53.778 49.1626C53.598 49.536 53.4147 49.9193 53.228 50.3126C53.048 50.706 52.8814 51.0693 52.728 51.4026C52.5814 51.736 52.468 51.9993 52.388 52.1926H51.718C51.638 51.9993 51.5214 51.736 51.368 51.4026C51.2214 51.0693 51.0547 50.706 50.868 50.3126C50.688 49.9193 50.508 49.536 50.328 49.1626C50.148 48.7826 49.9847 48.4493 49.838 48.1626C49.698 47.8693 49.5947 47.6593 49.528 47.5326C49.4747 48.0793 49.428 48.6593 49.388 49.2726C49.348 49.886 49.3114 50.5226 49.278 51.1826C49.2514 51.836 49.2247 52.5026 49.198 53.1826H48.438Z" fill="white"/>
</svg>
