<svg width="60" height="60" viewBox="0 0 60 60" fill="none" xmlns="http://www.w3.org/2000/svg">
<g clip-path="url(#clip0_16_191)">
<rect width="60" height="60" fill="#E95420"/>
<path d="M39.8746 -5.75391H20.1254V28.1417H39.8746V-5.75391Z" fill="white"/>
<path d="M16.392 41.132C15.944 41.132 15.544 41.068 15.192 40.94C14.84 40.812 14.564 40.604 14.364 40.316C14.164 40.028 14.064 39.648 14.064 39.176C14.064 38.72 14.176 38.352 14.4 38.072C14.624 37.784 14.932 37.576 15.324 37.448C15.724 37.32 16.172 37.256 16.668 37.256C16.892 37.256 17.128 37.276 17.376 37.316C17.624 37.356 17.78 37.392 17.844 37.424V37.064C17.844 36.792 17.808 36.532 17.736 36.284C17.672 36.028 17.536 35.82 17.328 35.66C17.12 35.5 16.804 35.42 16.38 35.42C15.94 35.42 15.604 35.452 15.372 35.516C15.14 35.58 14.968 35.632 14.856 35.672L14.736 34.904C14.88 34.84 15.1 34.78 15.396 34.724C15.692 34.668 16.04 34.64 16.44 34.64C17.008 34.64 17.456 34.74 17.784 34.94C18.12 35.14 18.36 35.416 18.504 35.768C18.656 36.112 18.732 36.508 18.732 36.956V40.856C18.564 40.896 18.264 40.952 17.832 41.024C17.4 41.096 16.92 41.132 16.392 41.132ZM16.524 40.364C16.804 40.364 17.056 40.356 17.28 40.34C17.504 40.316 17.692 40.288 17.844 40.256V38.168C17.764 38.128 17.628 38.088 17.436 38.048C17.244 38.008 16.996 37.988 16.692 37.988C16.436 37.988 16.176 38.016 15.912 38.072C15.648 38.128 15.424 38.24 15.24 38.408C15.064 38.576 14.976 38.828 14.976 39.164C14.976 39.612 15.116 39.924 15.396 40.1C15.676 40.276 16.052 40.364 16.524 40.364ZM23.0961 41.12C22.4721 41.12 21.9761 41.004 21.6081 40.772C21.2481 40.532 20.9881 40.196 20.8281 39.764C20.6761 39.332 20.6001 38.832 20.6001 38.264V34.784H21.5001V38.024C21.5001 38.584 21.5561 39.032 21.6681 39.368C21.7801 39.704 21.9601 39.948 22.2081 40.1C22.4641 40.244 22.8001 40.316 23.2161 40.316C23.5521 40.316 23.8481 40.3 24.1041 40.268C24.3681 40.228 24.5401 40.196 24.6201 40.172V34.784H25.5081V40.784C25.2681 40.848 24.9441 40.92 24.5361 41C24.1361 41.08 23.6561 41.12 23.0961 41.12ZM29.5555 41.132C29.0275 41.132 28.6115 41.04 28.3075 40.856C28.0035 40.672 27.7875 40.396 27.6595 40.028C27.5395 39.66 27.4795 39.2 27.4795 38.648V32.984L28.3795 32.828V34.784H30.8155V35.54H28.3795V38.72C28.3795 39.16 28.4275 39.496 28.5235 39.728C28.6275 39.96 28.7715 40.12 28.9555 40.208C29.1475 40.288 29.3715 40.328 29.6275 40.328C29.9315 40.328 30.1835 40.292 30.3835 40.22C30.5915 40.148 30.7555 40.084 30.8755 40.028L31.0675 40.76C30.9475 40.832 30.7475 40.912 30.4675 41C30.1955 41.088 29.8915 41.132 29.5555 41.132ZM32.2385 41V31.844L33.1385 31.688V34.94C33.3705 34.852 33.6145 34.784 33.8705 34.736C34.1345 34.688 34.3905 34.664 34.6385 34.664C35.2945 34.664 35.8025 34.784 36.1625 35.024C36.5225 35.264 36.7745 35.6 36.9185 36.032C37.0705 36.456 37.1465 36.952 37.1465 37.52V41H36.2465V37.772C36.2465 37.204 36.1945 36.752 36.0905 36.416C35.9865 36.08 35.8105 35.836 35.5625 35.684C35.3145 35.532 34.9665 35.456 34.5185 35.456C34.3505 35.456 34.1665 35.476 33.9665 35.516C33.7745 35.548 33.6025 35.584 33.4505 35.624C33.2985 35.664 33.1945 35.696 33.1385 35.72V41H32.2385ZM41.8059 41.144C41.1979 41.144 40.6619 41.016 40.1979 40.76C39.7339 40.496 39.3739 40.124 39.1179 39.644C38.8619 39.156 38.7339 38.576 38.7339 37.904C38.7339 37.264 38.8419 36.7 39.0579 36.212C39.2819 35.724 39.6019 35.344 40.0179 35.072C40.4419 34.792 40.9499 34.652 41.5419 34.652C41.9259 34.652 42.2619 34.708 42.5499 34.82C42.8459 34.924 43.0659 35.028 43.2099 35.132V31.844L44.0979 31.688V40.808C43.9459 40.856 43.7579 40.908 43.5339 40.964C43.3099 41.012 43.0539 41.052 42.7659 41.084C42.4859 41.124 42.1659 41.144 41.8059 41.144ZM41.8179 40.34C42.1699 40.34 42.4579 40.324 42.6819 40.292C42.9139 40.252 43.0899 40.216 43.2099 40.184V35.972C43.0739 35.86 42.8659 35.748 42.5859 35.636C42.3059 35.516 41.9899 35.456 41.6379 35.456C41.2779 35.456 40.9699 35.52 40.7139 35.648C40.4659 35.768 40.2619 35.94 40.1019 36.164C39.9499 36.388 39.8379 36.648 39.7659 36.944C39.7019 37.24 39.6699 37.556 39.6699 37.892C39.6699 38.412 39.7579 38.856 39.9339 39.224C40.1179 39.584 40.3699 39.86 40.6899 40.052C41.0179 40.244 41.3939 40.34 41.8179 40.34Z" fill="white"/>
<path d="M6.864 53.1826C6.896 52.4466 6.932 51.7146 6.972 50.9866C7.012 50.2586 7.056 49.5466 7.104 48.8506C7.152 48.1466 7.204 47.4626 7.26 46.7986C7.316 46.1266 7.38 45.4826 7.452 44.8666H8.292C8.524 45.2506 8.768 45.6986 9.024 46.2106C9.288 46.7146 9.552 47.2466 9.816 47.8066C10.08 48.3586 10.332 48.9026 10.572 49.4386C10.82 49.9746 11.04 50.4586 11.232 50.8906C11.424 50.4586 11.64 49.9746 11.88 49.4386C12.128 48.9026 12.384 48.3586 12.648 47.8066C12.912 47.2466 13.176 46.7146 13.44 46.2106C13.704 45.6986 13.948 45.2506 14.172 44.8666H14.964C15.036 45.4826 15.1 46.1266 15.156 46.7986C15.22 47.4626 15.272 48.1466 15.312 48.8506C15.36 49.5466 15.404 50.2586 15.444 50.9866C15.492 51.7146 15.532 52.4466 15.564 53.1826H14.628C14.596 52.3666 14.56 51.5666 14.52 50.7826C14.488 49.9906 14.448 49.2266 14.4 48.4906C14.352 47.7546 14.296 47.0586 14.232 46.4026C14.152 46.5546 14.024 46.8066 13.848 47.1586C13.68 47.5026 13.488 47.9026 13.272 48.3586C13.056 48.8066 12.836 49.2666 12.612 49.7386C12.396 50.2106 12.196 50.6466 12.012 51.0466C11.836 51.4466 11.7 51.7626 11.604 51.9946H10.8C10.704 51.7626 10.564 51.4466 10.38 51.0466C10.204 50.6466 10.004 50.2106 9.78 49.7386C9.564 49.2666 9.348 48.8066 9.132 48.3586C8.916 47.9026 8.72 47.5026 8.544 47.1586C8.376 46.8066 8.252 46.5546 8.172 46.4026C8.108 47.0586 8.052 47.7546 8.004 48.4906C7.956 49.2266 7.912 49.9906 7.872 50.7826C7.84 51.5666 7.808 52.3666 7.776 53.1826H6.864ZM19.3337 53.3626C18.6857 53.3626 18.1457 53.2906 17.7137 53.1466C17.2897 53.0026 16.9977 52.8826 16.8377 52.7866L17.1377 51.9946C17.3057 52.0906 17.5737 52.2066 17.9417 52.3426C18.3177 52.4786 18.7817 52.5466 19.3337 52.5466C19.9657 52.5466 20.4537 52.4346 20.7977 52.2106C21.1417 51.9786 21.3137 51.6146 21.3137 51.1186C21.3137 50.7346 21.2177 50.4346 21.0257 50.2186C20.8417 49.9946 20.5937 49.8146 20.2817 49.6786C19.9777 49.5346 19.6417 49.3906 19.2737 49.2466C18.8257 49.0706 18.4337 48.8866 18.0977 48.6946C17.7697 48.4946 17.5137 48.2546 17.3297 47.9746C17.1537 47.6866 17.0657 47.3266 17.0657 46.8946C17.0657 46.4146 17.1737 46.0106 17.3897 45.6826C17.6057 45.3546 17.9177 45.1066 18.3257 44.9386C18.7337 44.7706 19.2177 44.6866 19.7777 44.6866C20.2417 44.6866 20.6697 44.7466 21.0617 44.8666C21.4617 44.9786 21.7697 45.1026 21.9857 45.2386L21.6737 46.0186C21.4417 45.8586 21.1577 45.7306 20.8217 45.6346C20.4937 45.5386 20.1417 45.4906 19.7657 45.4906C19.2537 45.4906 18.8337 45.5946 18.5057 45.8026C18.1777 46.0106 18.0137 46.3506 18.0137 46.8226C18.0137 47.1426 18.0937 47.4026 18.2537 47.6026C18.4137 47.8026 18.6337 47.9706 18.9137 48.1066C19.1937 48.2426 19.5097 48.3826 19.8617 48.5266C20.3177 48.7026 20.7257 48.8906 21.0857 49.0906C21.4537 49.2826 21.7457 49.5346 21.9617 49.8466C22.1777 50.1506 22.2857 50.5626 22.2857 51.0826C22.2857 51.5866 22.1657 52.0066 21.9257 52.3426C21.6857 52.6786 21.3457 52.9346 20.9057 53.1106C20.4657 53.2786 19.9417 53.3626 19.3337 53.3626ZM26.5328 53.1826V44.8666H31.4288V45.6706H27.4688V48.4186H30.9968V49.2106H27.4688V52.3786H31.7288V53.1826H26.5328ZM33.1994 53.1826V47.1826C33.4474 47.1186 33.7714 47.0466 34.1714 46.9666C34.5714 46.8866 35.0514 46.8466 35.6114 46.8466C36.2594 46.8466 36.7634 46.9666 37.1234 47.2066C37.4834 47.4466 37.7354 47.7826 37.8794 48.2146C38.0314 48.6386 38.1074 49.1346 38.1074 49.7026V53.1826H37.2074V49.9546C37.2074 49.3866 37.1554 48.9346 37.0514 48.5986C36.9474 48.2626 36.7714 48.0186 36.5234 47.8666C36.2754 47.7146 35.9314 47.6386 35.4914 47.6386C35.1554 47.6386 34.8594 47.6586 34.6034 47.6986C34.3474 47.7386 34.1794 47.7706 34.0994 47.7946V53.1826H33.1994ZM42.0829 53.3146C41.5549 53.3146 41.1389 53.2226 40.8349 53.0386C40.5309 52.8546 40.3149 52.5786 40.1869 52.2106C40.0669 51.8426 40.0069 51.3826 40.0069 50.8306V45.1666L40.9069 45.0106V46.9666H43.3429V47.7226H40.9069V50.9026C40.9069 51.3426 40.9549 51.6786 41.0509 51.9106C41.1549 52.1426 41.2989 52.3026 41.4829 52.3906C41.6749 52.4706 41.8989 52.5106 42.1549 52.5106C42.4589 52.5106 42.7109 52.4746 42.9109 52.4026C43.1189 52.3306 43.2829 52.2666 43.4029 52.2106L43.5949 52.9426C43.4749 53.0146 43.2749 53.0946 42.9949 53.1826C42.7229 53.2706 42.4189 53.3146 42.0829 53.3146ZM44.7658 53.1826V47.2546C44.9738 47.1666 45.2578 47.0786 45.6178 46.9906C45.9858 46.8946 46.4258 46.8466 46.9378 46.8466C47.1058 46.8466 47.2698 46.8586 47.4298 46.8826C47.5978 46.8986 47.7458 46.9226 47.8738 46.9546C48.0098 46.9786 48.1098 47.0026 48.1738 47.0266L47.9938 47.7946C47.9218 47.7626 47.7858 47.7306 47.5858 47.6986C47.3858 47.6586 47.1298 47.6386 46.8178 47.6386C46.5138 47.6386 46.2618 47.6626 46.0618 47.7106C45.8618 47.7506 45.7298 47.7866 45.6658 47.8186V53.1826H44.7658ZM51.185 53.3146C50.737 53.3146 50.337 53.2506 49.985 53.1226C49.633 52.9946 49.357 52.7866 49.157 52.4986C48.957 52.2106 48.857 51.8306 48.857 51.3586C48.857 50.9026 48.969 50.5346 49.193 50.2546C49.417 49.9666 49.725 49.7586 50.117 49.6306C50.517 49.5026 50.965 49.4386 51.461 49.4386C51.685 49.4386 51.921 49.4586 52.169 49.4986C52.417 49.5386 52.573 49.5746 52.637 49.6066V49.2466C52.637 48.9746 52.601 48.7146 52.529 48.4666C52.465 48.2106 52.329 48.0026 52.121 47.8426C51.913 47.6826 51.597 47.6026 51.173 47.6026C50.733 47.6026 50.397 47.6346 50.165 47.6986C49.933 47.7626 49.761 47.8146 49.649 47.8546L49.529 47.0866C49.673 47.0226 49.893 46.9626 50.189 46.9066C50.485 46.8506 50.833 46.8226 51.233 46.8226C51.801 46.8226 52.249 46.9226 52.577 47.1226C52.913 47.3226 53.153 47.5986 53.297 47.9506C53.449 48.2946 53.525 48.6906 53.525 49.1386V53.0386C53.357 53.0786 53.057 53.1346 52.625 53.2066C52.193 53.2786 51.713 53.3146 51.185 53.3146ZM51.317 52.5466C51.597 52.5466 51.849 52.5386 52.073 52.5226C52.297 52.4986 52.485 52.4706 52.637 52.4386V50.3506C52.557 50.3106 52.421 50.2706 52.229 50.2306C52.037 50.1906 51.789 50.1706 51.485 50.1706C51.229 50.1706 50.969 50.1986 50.705 50.2546C50.441 50.3106 50.217 50.4226 50.033 50.5906C49.857 50.7586 49.769 51.0106 49.769 51.3466C49.769 51.7946 49.909 52.1066 50.189 52.2826C50.469 52.4586 50.845 52.5466 51.317 52.5466Z" fill="white"/>
<path d="M24.851 19.4031C25.9797 19.4031 26.8947 18.49 26.8947 17.3637C26.8947 16.2373 25.9797 15.3242 24.851 15.3242C23.7223 15.3242 22.8074 16.2373 22.8074 17.3637C22.8074 18.49 23.7223 19.4031 24.851 19.4031Z" fill="#E95420"/>
<path d="M33.3637 14.9295C34.4924 14.9295 35.4074 14.0164 35.4074 12.89C35.4074 11.7637 34.4924 10.8506 33.3637 10.8506C32.235 10.8506 31.3201 11.7637 31.3201 12.89C31.3201 14.0164 32.235 14.9295 33.3637 14.9295Z" fill="#E95420"/>
<path d="M29.4595 22.6125C27.9876 22.2974 26.7569 21.359 26.065 20.0293C25.5204 20.2766 24.9072 20.352 24.3169 20.2436C25.1537 22.294 26.9289 23.7847 29.1081 24.2505C29.5866 24.353 30.0736 24.4021 30.5597 24.3995C30.1845 23.9075 29.9753 23.3138 29.9609 22.6946C29.7924 22.676 29.6247 22.6489 29.4595 22.6133V22.6125Z" fill="#E95420"/>
<path d="M32.9023 24.6629C34.031 24.6629 34.946 23.7498 34.946 22.6234C34.946 21.4971 34.031 20.584 32.9023 20.584C31.7736 20.584 30.8586 21.4971 30.8586 22.6234C30.8586 23.7498 31.7736 24.6629 32.9023 24.6629Z" fill="#E95420"/>
<path d="M35.7463 21.8741C36.3823 21.0746 36.8295 20.1294 37.0455 19.1249C37.4215 17.3734 37.0701 15.5355 36.0817 14.0449C35.8462 14.598 35.4465 15.0663 34.9324 15.3882C35.4837 16.4257 35.6514 17.6233 35.4041 18.7743C35.283 19.3375 35.0696 19.8694 34.7681 20.3547C35.2491 20.7485 35.5887 21.2779 35.7463 21.8741Z" fill="#E95420"/>
<path d="M24.6924 14.437C24.744 14.4344 24.7965 14.4327 24.8482 14.4327C25.0549 14.4327 25.2607 14.4547 25.4648 14.4979C25.7976 14.5691 26.111 14.6953 26.3981 14.8731C27.3188 13.5527 28.8035 12.76 30.4127 12.7312C30.4211 12.5771 30.4414 12.4229 30.4745 12.2722C30.5685 11.8351 30.7599 11.4269 31.0326 11.0771C28.4621 10.8739 25.9645 12.1976 24.6924 14.437Z" fill="#E95420"/>
</g>
<defs>
<clipPath id="clip0_16_191">
<rect width="60" height="60" fill="white"/>
</clipPath>
</defs>
</svg>
